<?xml version="1.0" encoding="UTF-8" standalone="no"?>
<!-- Generator: Adobe Illustrator 17.1.0, SVG Export Plug-In . SVG Version: 6.00 Build 0)  -->

<svg
   xmlns:dc="http://purl.org/dc/elements/1.1/"
   xmlns:cc="http://creativecommons.org/ns#"
   xmlns:rdf="http://www.w3.org/1999/02/22-rdf-syntax-ns#"
   xmlns:svg="http://www.w3.org/2000/svg"
   xmlns="http://www.w3.org/2000/svg"
   xmlns:sodipodi="http://sodipodi.sourceforge.net/DTD/sodipodi-0.dtd"
   xmlns:inkscape="http://www.inkscape.org/namespaces/inkscape"
   version="1.1"
   id="Calque_1"
   x="0px"
   y="0px"
   viewBox="0 0 512 512"
   enable-background="new 0 0 474.5 360.9"
   xml:space="preserve"
   inkscape:version="0.48.5 r10040"
   width="100%"
   height="100%"
   sodipodi:docname="wing.svg"
   inkscape:export-filename="/home/florent/Workspace/lce_web/app/assets/images/logos/mfb/wing.png"
   inkscape:export-xdpi="8.4399996"
   inkscape:export-ydpi="8.4399996"><metadata
     id="metadata33"><rdf:RDF><cc:Work
         rdf:about=""><dc:format>image/svg+xml</dc:format><dc:type
           rdf:resource="http://purl.org/dc/dcmitype/StillImage" /><dc:title></dc:title></cc:Work></rdf:RDF></metadata><defs
     id="defs31" /><sodipodi:namedview
     pagecolor="#ffffff"
     bordercolor="#666666"
     borderopacity="1"
     objecttolerance="10000"
     gridtolerance="10000"
     guidetolerance="10000"
     inkscape:pageopacity="0"
     inkscape:pageshadow="2"
     inkscape:window-width="1680"
     inkscape:window-height="995"
     id="namedview29"
     showgrid="false"
     inkscape:zoom="0.9247836"
     inkscape:cx="472.57507"
     inkscape:cy="275.81968"
     inkscape:window-x="0"
     inkscape:window-y="0"
     inkscape:window-maximized="1"
     inkscape:current-layer="Calque_1" /><path
     style="fill:#55aae0"
     inkscape:connector-curvature="0"
     id="path5"
     d="M 423.38555,201.85722 C 414.87912,185.19882 396.44856,160.74287 396.44856,160.74287 342.22015,81.704066 265.30795,0.18422512 203.28198,0.18422512 c -62.02596,0 -68.05135,72.30455288 -29.41803,136.10268488 0,0 -22.68378,-11.69632 -41.46879,1.06331 -18.78501,12.75963 -33.316798,64.86145 24.45596,138.22927 0,0 -33.67125,-21.97488 -54.93729,-2.83549 -20.911605,19.49389 -35.797836,102.07703 55.64615,153.46997 35.08899,19.49387 86.83635,38.63332 168.00176,21.26604 -12.05075,11.69634 -26.58256,26.22812 -32.25349,32.25351 -9.92417,11.34189 -10.2786,20.91161 -5.31652,26.22812 5.67094,5.67095 14.17736,9.21529 26.22812,1.06331 12.05077,-8.50643 61.3171,-63.4437 64.15257,-67.34249 4.96208,-6.37981 6.02539,-18.43056 -3.18989,-25.87369 0,0 -47.13975,-47.84859 -53.16512,-53.51954 -6.02539,-5.67095 -15.24068,-12.40519 -25.51927,-2.12661 -10.27857,10.27859 -8.86085,17.01285 -1.06329,25.51926 4.60764,5.3165 20.55717,20.55717 32.60793,31.89907 -33.67124,6.02538 -99.24155,12.40519 -149.21675,-16.30397 -69.82352,-39.69661 -58.83606,-79.74767 -50.68407,-88.96296 17.01283,-19.84831 66.6336,16.6584 85.06417,32.96238 8.86086,7.79754 22.32936,18.78501 32.2535,9.92415 6.02538,-5.31651 6.37983,-17.36727 -9.92414,-34.73454 -18.43058,-19.49388 -109.52014,-119.44426 -78.68437,-142.12804 26.93698,-19.84832 65.92473,31.1902 78.68437,45.01313 10.98745,11.69633 20.91161,14.17737 26.58255,8.86086 8.86085,-8.152 4.96208,-18.78502 -2.48104,-27.64587 -7.44312,-8.86085 -99.24155,-108.456833 -60.96266,-144.254675 37.92444,-35.797842 130.07732,65.215885 156.65987,99.241555 6.02538,7.79754 30.83576,42.17766 40.05106,56.00058 15.94951,24.45596 37.92442,7.44311 28.00028,-11.69633" /></svg>